<?xml version="1.0" encoding="UTF-8"?>
<svg width="768" height="768" viewBox="0 0 768 768" role="img" xmlns="http://www.w3.org/2000/svg">
  <title>Steadfast 5E Exploding Damage icon</title>
  <desc>A heraldic shield in dark steel with a gold starburst and Steadfast5E branding</desc>
  <style>
    .shield-body { fill: #2a2d35; stroke: #c9a84c; stroke-width: 6; }
    .shield-inner { fill: none; stroke: #c9a84c; stroke-width: 3; opacity: 0.5; }
    .sub-text { font-family: serif; font-weight: 400; fill: #a08030; }
    .rivet { fill: #c9a84c; }
  </style>
  <g transform="translate(384, 384)">
    <path class="shield-body" d="M0,-300 L225,-228 L255,42 Q255,210 0,300 Q-255,210 -255,42 L-225,-228 Z"/>
    <path class="shield-inner" d="M0,-264 L192,-198 L219,36 Q219,180 0,264 Q-219,180 -219,36 L-192,-198 Z"/>
    <line x1="-219" y1="-30" x2="219" y2="-30" stroke="#c9a84c" stroke-width="2" opacity="0.4"/>
    <!-- top center rivet -->
    <circle class="rivet" cx="0" cy="-285" r="9"/>
    <!-- upper shoulder rivets -->
    <circle class="rivet" cx="-200" cy="-218" r="9"/>
    <circle class="rivet" cx="200" cy="-218" r="9"/>
    <!-- mid side rivets -->
    <circle class="rivet" cx="-238" cy="42" r="9"/>
    <circle class="rivet" cx="238" cy="42" r="9"/>
    <!-- bottom point rivet -->
    <circle class="rivet" cx="0" cy="285" r="9"/>

    <!-- Starburst (explosion) -->
    <polygon points="0.0,-175.0 24.9,-80.1 109.6,-129.6 60.1,-44.9 155.0,-20.0 60.1,4.9 109.6,89.6 24.9,40.1 0.0,135.0 -24.9,40.1 -109.6,89.6 -60.1,4.9 -155.0,-20.0 -60.1,-44.9 -109.6,-129.6 -24.9,-80.1"
             fill="#e8c96a" stroke="#e8c96a" stroke-width="4" stroke-linejoin="round"/>

    <text class="sub-text" x="0" y="-155" font-size="30" text-anchor="middle" letter-spacing="6">Steadfast5e</text>
    <text class="sub-text" x="0" y="170" font-size="24" text-anchor="middle" letter-spacing="4">EXPLODING DAMAGE</text>
  </g>
</svg>
